<svg width="24" height="24" viewBox="0 0 24 24" fill="none" xmlns="http://www.w3.org/2000/svg">
<g clip-path="url(#clip0)">
<path d="M16.2886 0H6.91141C3.10044 0 0 3.20735 0 7.14973V16.8503C0 20.7926 3.10044 24 6.91141 24H16.2886C20.0996 24 23.2 20.7926 23.2 16.8503V7.14973C23.2 3.20735 20.0995 0 16.2886 0ZM20.8661 16.8503C20.8661 19.4655 18.8167 21.5856 16.2886 21.5856H6.91141C4.38335 21.5856 2.33392 19.4655 2.33392 16.8503V7.14973C2.33392 4.53446 4.38335 2.4144 6.91141 2.4144H16.2886C18.8167 2.4144 20.8661 4.53446 20.8661 7.14973V16.8503Z" fill="white"/>
<path d="M11.6 5.79297C8.29136 5.79297 5.59961 8.57754 5.59961 12.0002C5.59961 15.4228 8.29136 18.2074 11.6 18.2074C14.9085 18.2074 17.6003 15.4229 17.6003 12.0002C17.6003 8.57749 14.9085 5.79297 11.6 5.79297ZM11.6 15.7931C9.57503 15.7931 7.93353 14.095 7.93353 12.0002C7.93353 9.90547 9.57507 8.20737 11.6 8.20737C13.6249 8.20737 15.2664 9.90547 15.2664 12.0002C15.2664 14.0949 13.6248 15.7931 11.6 15.7931Z" fill="white"/>
<path d="M17.612 7.32682C18.4061 7.32682 19.0498 6.6609 19.0498 5.83944C19.0498 5.01798 18.4061 4.35205 17.612 4.35205C16.8179 4.35205 16.1742 5.01798 16.1742 5.83944C16.1742 6.6609 16.8179 7.32682 17.612 7.32682Z" fill="white"/>
</g>
<defs>
<clipPath id="clip0">
<rect width="23.2" height="24" fill="white"/>
</clipPath>
</defs>
</svg>
