<svg width="24" height="24" viewBox="0 0 24 24" fill="none" xmlns="http://www.w3.org/2000/svg">
<path d="M23.6183 4.34045C23.085 4.5769 22.5315 4.76345 21.9635 4.8985C22.5893 4.30376 23.0599 3.55986 23.3254 2.72954C23.4012 2.4925 23.1437 2.28753 22.9297 2.41444C22.1395 2.88314 21.2883 3.23476 20.3998 3.45963C20.3482 3.47268 20.2951 3.47929 20.2417 3.47929C20.0798 3.47929 19.9225 3.41919 19.7987 3.31012C18.8534 2.47694 17.6375 2.01807 16.3752 2.01807C15.8289 2.01807 15.2774 2.1032 14.736 2.27114C13.0582 2.79151 11.7637 4.17544 11.3576 5.88289C11.2052 6.52333 11.1639 7.16435 11.2349 7.78812C11.243 7.8598 11.2091 7.90983 11.1882 7.93329C11.1515 7.97443 11.0995 7.99801 11.0455 7.99801C11.0395 7.99801 11.0333 7.99772 11.0271 7.99713C7.35465 7.65593 4.04297 5.88663 1.7021 3.01521C1.58274 2.86875 1.35383 2.88671 1.25868 3.04991C0.800281 3.83634 0.558031 4.73583 0.558031 5.65111C0.558031 7.05382 1.12158 8.37572 2.10047 9.33939C1.68882 9.24179 1.2904 9.08807 0.920294 8.88251C0.74124 8.78304 0.520933 8.91089 0.518417 9.11569C0.492788 11.1995 1.71281 13.0537 3.54045 13.8887C3.50365 13.8895 3.46684 13.8899 3.42998 13.8899C3.14027 13.8899 2.84694 13.862 2.55823 13.8068C2.35659 13.7683 2.18719 13.9596 2.2498 14.1551C2.84302 16.0071 4.43765 17.3723 6.34592 17.6822C4.76217 18.7454 2.91786 19.3062 0.998294 19.3062L0.399867 19.3058C0.215488 19.3058 0.0595472 19.426 0.0125601 19.6046C-0.0337248 19.7805 0.0515307 19.966 0.208759 20.0575C2.3718 21.3163 4.83906 21.9816 7.34488 21.9816C9.53829 21.9816 11.59 21.5463 13.4432 20.6879C15.142 19.901 16.6433 18.776 17.9052 17.3443C19.0808 16.0107 20 14.4711 20.6374 12.7685C21.2449 11.1454 21.566 9.41365 21.566 7.76026V7.6815C21.566 7.41602 21.6861 7.16623 21.8955 6.99618C22.6905 6.35077 23.3827 5.59102 23.9529 4.73805C24.1035 4.51283 23.866 4.23056 23.6183 4.34045Z" fill="white"/>
</svg>
